<svg width="104" height="29" viewBox="0 0 104 29" fill="none" xmlns="http://www.w3.org/2000/svg">
<path d="M4.38271 19.415C5.1507 20.183 6.14396 20.8793 7.37276 21.5039C8.60156 22.1286 9.95325 22.446 11.4278 22.446C11.7862 22.446 12.1548 22.4153 12.5337 22.3436C12.9126 22.2719 13.2608 22.1593 13.5577 21.9955C13.8547 21.8316 14.1004 21.6166 14.295 21.3401C14.4895 21.0636 14.5817 20.7155 14.5817 20.2752C14.5817 19.5686 14.2233 18.9747 13.4963 18.5139C12.7692 18.0531 11.7145 17.582 10.3219 17.1212L8.80638 16.6297C7.95646 16.3533 7.10654 16.0051 6.24639 15.5648C5.38623 15.1244 4.61822 14.6022 3.93214 13.9878C3.24607 13.3734 2.69311 12.6464 2.27327 11.8169C1.85344 10.9875 1.6384 10.0044 1.6384 8.88829C1.6384 7.62877 1.87391 6.46143 2.33471 5.38623C2.79551 4.31104 3.47136 3.36895 4.36224 2.55999C5.25311 1.75103 6.34876 1.1264 7.65948 0.675842C8.97019 0.225283 10.4857 0 12.206 0C13.5475 0 14.7558 0.122896 15.8515 0.368655C16.9471 0.614415 17.8995 0.911379 18.7187 1.26978C19.5379 1.62818 20.2342 2.00705 20.8076 2.41665C21.3811 2.82625 21.8214 3.19487 22.1183 3.52255L18.4319 8.19198C17.4796 7.48542 16.4761 6.90176 15.4419 6.4512C14.4076 6.00064 13.3427 5.77536 12.247 5.77536C11.8886 5.77536 11.5404 5.81631 11.182 5.89823C10.8236 5.98015 10.5062 6.10302 10.2195 6.26686C9.93275 6.4307 9.69724 6.64576 9.52316 6.90176C9.34908 7.15776 9.25694 7.48541 9.25694 7.86429C9.25694 8.27389 9.35933 8.6323 9.56413 8.92926C9.76893 9.22621 10.0454 9.49246 10.4038 9.7075C10.7622 9.92254 11.1923 10.1273 11.694 10.3014C12.1958 10.4755 12.7385 10.6598 13.312 10.8544L14.6227 11.264C15.5545 11.5609 16.4966 11.9091 17.4489 12.3085C18.4012 12.7078 19.2614 13.2403 20.0294 13.9059C20.7974 14.5715 21.422 15.4112 21.9135 16.4045C22.405 17.3977 22.6508 18.6265 22.6508 20.0703C22.6508 21.3299 22.3539 22.487 21.7702 23.5519C21.1865 24.6169 20.3878 25.5282 19.3945 26.2962C18.4012 27.0642 17.2236 27.6582 15.872 28.078C14.5203 28.4979 13.0764 28.7129 11.5507 28.7129C8.81661 28.7129 6.53309 28.3545 4.68989 27.6275C2.8467 26.9004 1.28 25.9276 0 24.6988L4.38271 19.415Z" fill="white"/>
<path d="M28.0576 0.747925H39.1987C40.6733 0.747925 42.0045 0.94247 43.1923 1.34183C44.3801 1.74119 45.3939 2.31465 46.2438 3.06217C47.0937 3.80969 47.7491 4.75174 48.2099 5.88838C48.6707 7.02501 48.9062 8.3255 48.9062 9.80005C48.9062 11.1927 48.6707 12.4522 48.1894 13.5889C47.7081 14.7255 47.0528 15.688 46.2233 16.497C45.3939 17.306 44.3904 17.9203 43.2333 18.3402C42.0761 18.76 40.7961 18.9751 39.4035 18.9751H35.1437V28.0682H28.0576V0.747925ZM38.5843 13.2714C39.5673 13.2714 40.3456 12.954 40.919 12.3293C41.4925 11.7047 41.7792 10.8957 41.7792 9.91268C41.7792 8.87844 41.5027 8.03879 40.96 7.41416C40.4173 6.78952 39.6083 6.47206 38.5433 6.47206H35.1437V13.2714H38.5843Z" fill="white"/>
<path d="M54.1489 0.747925H65.4538C66.9284 0.747925 68.2596 0.942482 69.4474 1.32136C70.6353 1.70024 71.649 2.27368 72.4989 3.0212C73.3489 3.76872 74.0042 4.71078 74.465 5.82694C74.9258 6.9431 75.1613 8.24359 75.1613 9.71815C75.1613 11.5204 74.762 13.0871 73.9735 14.408C73.185 15.729 72.1303 16.794 70.8196 17.5824L76.6769 28.0682H68.8945L64.266 18.7703H61.235V28.0682H54.1489V0.747925ZM64.7575 13.0769C65.7098 13.0769 66.4881 12.7799 67.0922 12.1962C67.6964 11.6125 67.9934 10.8241 67.9934 9.84102C67.9934 8.80679 67.7066 7.98759 67.1332 7.38344C66.5598 6.77928 65.7508 6.48231 64.7166 6.48231H61.235V13.0769H64.7575Z" fill="white"/>
<path d="M86.8349 17.1728L77.1274 0.747925H85.4423L90.7671 10.4964L95.7642 0.747925H103.833L94.0848 17.1319V28.0682H86.8349V17.1728Z" fill="white"/>
</svg>
