<svg width="442" height="442" viewBox="0 0 442 442" fill="none" xmlns="http://www.w3.org/2000/svg">
<circle cx="221" cy="221" r="221" fill="#F1E9DD"/>
<path d="M205.252 226.621C207.145 224.938 209.068 223.157 211.065 221.464C226.659 208.251 244.846 200.045 264.372 194.836C280.378 190.565 296.656 187.325 312.711 183.225C320.139 181.328 327.502 178.902 334.571 175.945C343.457 172.23 350.444 166.18 353.8 156.72C353.935 156.341 354.327 156.053 354.764 155.524C355.109 156.152 355.473 156.561 355.568 157.024C358.466 171.059 355.438 183.762 341.203 191.887C331.902 197.196 321.638 199.418 311.156 200.742C284.403 204.118 257.95 208.821 232.516 218.131C218.409 223.295 205.314 230.113 194.894 241.268C194.463 241.729 193.959 242.128 193.457 242.514C193.178 242.728 192.833 242.855 192.262 243.156C192.014 242.421 191.834 241.78 191.586 241.167C188.876 234.483 186.181 227.793 183.407 221.136C183.036 220.247 182.319 219.46 181.635 218.749C176.956 213.892 169.772 215.464 168.347 222.027C167.57 225.61 167.769 229.644 168.513 233.273C170.963 245.237 174.008 257.078 176.557 269.023C181.485 292.118 181.929 315.218 175.783 338.191C173.37 347.209 169.523 355.56 163.08 362.514C150.078 376.549 127.706 378.376 113.573 366.473C106.034 360.123 102.366 351.662 101.222 342.098C97.5734 311.604 114.821 291.32 139.933 282.593C142.2 281.805 143.117 282.547 143.022 284.623C142.729 290.956 142.331 297.285 141.807 303.602C141.758 304.191 140.579 305.038 139.825 305.163C129.161 306.918 120.529 312.08 113.549 320.262C103.316 332.26 108.445 354.181 117.004 361.722C123.701 367.622 132.641 368.881 141.039 364.589C149.316 360.361 154.333 353.265 157.758 344.935C162.811 332.643 163.994 319.678 162.251 306.743C159.774 288.368 156.246 270.136 153.158 251.844C151.712 243.279 151.244 234.77 153.916 226.306C160.253 206.231 185.03 204.136 196.396 215.668C199.605 218.924 202.188 222.791 205.252 226.621Z" fill="#12170E"/>
<path d="M310.659 301.524C299.909 302.692 289.542 304.712 279.493 308.111C250.203 318.019 223.078 332.248 197.462 349.45C196.643 349.999 195.882 350.635 195.026 351.283C193.162 349.143 192.623 347.043 193.284 344.089C196.698 328.815 199.92 313.495 202.961 298.142C205.266 286.512 207.202 274.81 209.291 263.137C209.48 262.078 209.594 261.004 209.754 259.852C203.369 262.091 197.328 266.611 190.476 262.501C190.445 262.222 190.415 261.944 190.384 261.666C192.922 260.903 195.58 260.406 197.978 259.329C207.137 255.22 213.81 248.335 219.141 239.981C219.658 239.169 220.856 238.414 221.801 238.328C223.807 238.146 224.675 239.013 224.048 241.319C223.08 244.878 222.507 248.543 222.364 252.474C223.37 251.435 224.311 250.323 225.393 249.371C232.287 243.305 240.523 245.486 243.402 254.211C245.513 260.608 244.77 267.16 243.663 273.586C242.839 278.374 241.751 283.217 239.979 287.72C237.016 295.246 231.285 300.029 223.352 302.036C219.734 302.952 216.371 302.307 213.174 300.228C210.377 312.727 207.623 325.039 204.797 337.673C205.706 337.05 206.48 336.525 207.248 335.992C235.411 316.457 265.84 301.738 299.065 293.007C303.087 291.95 307.223 291.332 311.28 290.398C312.025 290.226 313.094 289.631 313.253 289.031C314.726 283.454 316.033 277.832 317.429 272.054C314.558 273.571 312.044 275.181 309.323 276.28C302.825 278.907 299.392 277.447 296.339 270.969C293.468 273.499 290.726 276.113 287.769 278.457C285.585 280.19 283.258 281.858 280.75 283.04C277.081 284.771 274.074 283.449 273.79 279.462C273.356 273.372 273.602 267.193 274.078 261.092C274.434 256.526 275.608 252.022 276.447 247.321C272.4 249.103 268.441 250.731 264.62 252.639C263.946 252.975 263.727 254.449 263.514 255.444C261.845 263.212 260.516 271.069 258.461 278.733C257.578 282.029 255.523 285.153 253.46 287.958C250.953 291.367 247.36 292.886 243.009 291.855C242.992 291.54 242.918 291.259 242.983 291.223C247.375 288.75 249.448 284.601 250.329 280C252.01 271.212 253.343 262.355 254.694 253.508C255.21 250.128 255.38 246.696 255.79 242.442C257.837 243.295 259.435 244.079 261.112 244.614C262.114 244.934 263.324 245.175 264.298 244.918C271.241 243.085 277.219 239.335 283.082 235.338C284.288 234.515 285.832 234.187 287.221 233.631C287.421 233.867 287.621 234.101 287.82 234.337C287.058 238.287 286.171 242.219 285.559 246.193C284.21 254.957 282.996 263.742 281.737 272.52C281.647 273.146 281.512 273.81 281.63 274.411C281.793 275.236 282.178 276.018 282.468 276.818C283.186 276.517 284.093 276.399 284.59 275.885C288.496 271.85 292.333 267.75 296.16 263.641C296.576 263.194 296.955 262.606 297.091 262.023C299.061 253.577 300.986 245.121 302.962 236.496C301.422 236.736 299.834 237.253 298.292 237.142C296.912 237.043 295.581 236.252 294.253 235.333C302.488 232.557 308.113 225.188 317.24 223.474C316.876 224.665 316.609 225.472 316.382 226.289C313.158 237.868 309.882 249.435 306.779 261.046C306.277 262.923 306.389 265.015 306.499 266.991C306.664 269.978 308.298 271.11 311.1 270.04C312.654 269.447 314.183 268.435 315.348 267.246C318.228 264.305 320.268 260.888 321.24 256.75C323.599 246.709 326.255 236.739 328.698 226.718C329.541 223.261 331.163 220.622 334.5 219.01C336.437 218.075 338.039 216.463 339.953 215.465C340.931 214.956 342.265 215.127 343.437 214.991C343.473 215.984 343.775 217.055 343.507 217.957C336.56 241.378 329.554 264.781 322.561 288.188C322.433 288.616 322.344 289.056 322.162 289.788C323.625 290.079 325.02 290.308 326.39 290.639C336.523 293.087 343.2 300.432 344.691 311.48C346.575 325.434 341.415 336.502 329.919 344.529C327.975 345.886 325.53 346.733 323.191 347.28C316.887 348.757 311.316 345.651 309.133 339.551C306.911 333.339 307.043 326.877 307.805 320.469C308.499 314.633 309.635 308.848 310.566 303.039C310.634 302.623 310.621 302.192 310.659 301.524ZM319.46 301.487C317.209 312.823 314.611 324.023 315.107 335.611C315.215 338.135 314.678 341.436 317.593 342.515C320.645 343.646 322.829 341.068 324.693 339.012C329.979 333.183 333.174 326.241 334.73 318.591C335.207 316.25 335.375 313.686 334.953 311.356C333.81 305.038 327.655 301.174 319.46 301.487ZM235.222 263.72C235.136 261.886 235.122 260.708 235.008 259.539C234.947 258.917 234.747 258.3 234.551 257.7C233.646 254.931 231.878 253.978 229.344 255.32C225.139 257.547 221.704 260.765 220.567 265.499C218.268 275.073 216.353 284.738 214.203 294.349C213.738 296.426 214.738 297.872 216.411 297.956C218.427 298.057 220.967 297.797 222.425 296.628C224.754 294.765 226.796 292.249 228.221 289.611C232.675 281.365 234.387 272.317 235.222 263.72Z" fill="#12170E"/>
<path d="M123.146 208.256C125.083 199.547 127.138 190.862 128.928 182.124C131.215 170.955 133.307 159.747 135.441 148.547C135.929 145.982 137.149 144.127 139.517 142.842C142.539 141.202 145.397 139.262 148.343 137.481C150.161 136.382 151.252 136.897 151.296 139.035C151.35 141.658 151.168 144.287 151.071 146.912C150.664 158.072 150.933 169.197 152.945 180.215C153.492 183.21 154.331 186.152 155.546 189.066C155.923 184.641 156.198 180.203 156.693 175.79C159.244 153.053 165.206 131.227 174.363 110.26C176.137 106.197 178.538 102.647 182.133 99.9856C187.075 96.3267 192.004 92.6508 197.005 89.0745C197.855 88.4674 199.038 88.326 200.3 87.8885C200.21 88.6504 200.27 88.9798 200.135 89.1671C189.115 104.397 182.622 121.809 176.181 139.206C170.141 155.518 165.165 172.158 162.502 189.401C162.048 192.349 161.878 195.34 161.577 198.311C161.495 199.119 161.723 200.325 161.279 200.671C158.388 202.93 155.364 205.023 152.288 207.023C152.205 207.076 150.651 205.543 150.427 204.597C148.797 197.733 147.203 190.854 145.852 183.931C144.552 177.272 143.563 170.552 142.42 163.862C142.317 163.262 142.087 162.683 141.707 161.374C139.558 173.397 137.587 184.701 135.507 195.985C132.243 213.692 129.098 231.439 122.994 248.462C121.688 252.103 119.877 255.579 118.084 259.02C117.278 260.568 115.945 261.84 114.543 263.134C115.147 220.508 112.965 178.096 110.315 136.027C106.587 138.373 103.164 141.002 99.3418 142.773C96.6448 144.022 93.4285 144.429 90.4068 144.622C87.5803 144.802 85.16 143.471 83.6926 140.506C94.0518 139.823 98.5706 131.645 104.6 125.184C107.31 122.281 111.305 120.443 114.963 118.615C116.647 117.774 117.348 119.748 117.588 121.221C118.515 126.937 119.575 132.641 120.239 138.388C122.834 160.849 123.132 183.392 122.413 205.964C122.39 206.683 122.41 207.403 122.41 208.122C122.655 208.166 122.901 208.211 123.146 208.256Z" fill="#12170E"/>
<path d="M207.904 208.081C219.453 189.998 224.891 169.513 231.777 149.231C230.364 148.659 229.159 148.094 227.903 147.686C226.65 147.278 225.346 147.027 223.795 145.968C226.727 144.297 229.712 142.709 232.563 140.911C233.605 140.255 234.78 139.244 235.133 138.149C239.463 124.716 243.653 111.239 247.867 97.7693C248.045 97.201 248.101 96.5953 248.232 95.9076C244.322 97.0696 240.666 98.3318 236.918 99.2012C234.839 99.6839 232.59 99.7397 230.447 99.5835C227.055 99.3362 225.509 97.5572 225.037 93.776C232.639 97.0264 239.065 93.935 244.498 89.317C251.381 83.4649 257.554 76.7761 264.033 70.4483C265.176 69.3324 266.201 67.8708 268.006 68.9154C261.526 104.146 264.559 138.715 273.496 173.418C271.084 173.62 268.417 174.044 265.768 173.946C264.958 173.915 263.76 172.576 263.489 171.623C260.533 161.229 258.691 150.63 258.011 139.838C257.984 139.414 257.895 138.994 257.748 137.955C252.91 140.497 248.318 142.8 243.864 145.346C243.033 145.821 242.578 147.211 242.254 148.272C238.419 160.815 234.596 173.362 230.871 185.937C228.914 192.544 225.396 197.822 219.3 201.363C216.336 203.085 213.685 205.345 210.877 207.341C210.178 207.837 209.425 208.258 208.697 208.714C208.433 208.504 208.169 208.292 207.904 208.081ZM257.489 92.2989C253.626 106.552 249.725 120.948 245.719 135.727C248.309 135.184 250.397 134.695 252.506 134.314C257.586 133.393 257.522 133.414 257.503 128.095C257.459 116.145 257.489 104.195 257.489 92.2989Z" fill="#12170E"/>
<path d="M343.348 138.796C343.348 139.805 343.763 141.126 343.278 141.772C340.742 145.15 338.391 148.847 335.208 151.522C327.896 157.664 321.265 156.072 316.543 147.567C313.647 151.139 310.859 154.777 307.836 158.207C306.618 159.589 305.025 160.834 303.353 161.586C300.011 163.09 296.793 161.767 296.182 158.213C295.407 153.714 294.998 149.026 295.345 144.49C295.84 138.012 297.167 131.598 298.129 125.156C298.22 124.543 298.24 123.919 298.292 123.322C294.177 124.923 290.124 126.405 286.177 128.131C285.519 128.418 285.095 129.727 284.951 130.626C283.411 140.264 281.949 149.915 280.453 159.639C277.806 159.552 275.83 157.851 275.907 154.651C276.181 143.429 276.634 132.21 276.945 120.987C277.001 118.959 277.879 118.432 279.683 118.888C280.211 119.022 280.878 118.97 281.253 119.279C284.277 121.773 287.349 120.445 290.1 119.072C295.35 116.451 300.373 113.379 305.559 110.622C307.018 109.846 308.713 109.515 310.69 108.849C308.704 117.429 306.711 125.136 305.185 132.935C304.041 138.787 303.441 144.751 302.748 150.682C302.628 151.711 303.246 152.826 303.523 153.902C304.592 153.38 305.956 153.115 306.678 152.29C309.299 149.298 311.783 146.174 314.142 142.969C314.763 142.125 315.03 140.8 314.98 139.719C314.512 129.587 317.441 120.404 322.701 111.893C324.876 108.373 327.755 105.486 331.615 103.759C339.426 100.265 347.156 104.792 347.086 113.302C347.051 117.535 345.592 121.78 344.536 125.959C344.342 126.73 343.082 127.469 342.165 127.782C337.195 129.474 332.194 131.085 327.165 132.593C325.613 133.058 324.814 133.829 324.897 135.44C325.076 138.857 324.931 142.334 325.534 145.676C326.234 149.557 328.557 150.706 331.849 148.533C335.267 146.278 338.13 143.18 341.2 140.411C341.715 139.947 342.052 139.286 342.472 138.715C342.765 138.741 343.056 138.769 343.348 138.796ZM325.79 127.07C329.553 125.798 332.625 124.758 335.698 123.72C340.543 122.084 340.544 122.084 340.731 116.974C340.737 116.793 340.791 116.595 340.738 116.434C340.204 114.811 339.991 112.122 339.028 111.818C337.469 111.326 335.028 111.883 333.641 112.912C329.157 116.241 327.455 121.305 325.79 127.07Z" fill="#12170E"/>
<path d="M200.896 181.173C200.989 181.803 201.512 182.88 201.189 183.55C198.814 188.482 195.465 192.579 190.314 194.852C183.598 197.817 177.763 195.377 175.172 188.524C173.363 183.74 173.238 178.798 174.051 173.801C175.327 165.958 177.683 158.47 181.908 151.7C184.988 146.766 188.798 142.557 194.871 141.264C200.158 140.138 204.823 142.847 206.164 148.075C207.774 154.345 206.754 160.488 204.564 166.449C204.296 167.18 203.191 167.828 202.343 168.086C197.32 169.609 192.23 170.918 187.235 172.523C186.31 172.821 185.111 174.118 185.071 174.999C184.881 179.214 184.688 183.489 185.202 187.656C185.616 191.017 187.964 191.999 190.736 190.007C194.21 187.51 197.242 184.399 200.896 181.173ZM185.623 165.836C185.856 166.091 186.088 166.346 186.322 166.601C188.853 165.883 191.383 165.164 193.914 164.446C200.731 162.51 201.275 161.738 200.836 154.613C200.598 150.753 198.313 149.442 194.982 151.459C193.555 152.325 192.083 153.501 191.261 154.905C189.19 158.437 187.478 162.178 185.623 165.836Z" fill="#12170E"/>
</svg>
